<?xml version="1.0" standalone="no"?>
<!DOCTYPE svg PUBLIC "-//W3C//DTD SVG 20010904//EN"
 "http://www.w3.org/TR/2001/REC-SVG-20010904/DTD/svg10.dtd">
<svg version="1.0" xmlns="http://www.w3.org/2000/svg"
 width="470.000000pt" height="470.000000pt" viewBox="0 0 470.000000 470.000000"
 preserveAspectRatio="xMidYMid meet">
<metadata>
Created by potrace 1.14, written by Peter Selinger 2001-2017
</metadata>
<g transform="translate(0.000000,470.000000) scale(0.100000,-0.100000)"
fill="#000000" stroke="none">
<path d="M2225 4322 c-4 -4 -35 -7 -147 -15 -10 -1 -18 -4 -18 -7 0 -3 -13 -5
-30 -4 -27 1 -177 -34 -285 -66 -102 -30 -292 -117 -400 -182 -16 -10 -40 -22
-52 -28 -13 -5 -23 -14 -23 -20 0 -5 -5 -10 -11 -10 -14 0 -145 -96 -175 -127
-12 -13 -24 -23 -28 -23 -17 0 -246 -244 -286 -305 -8 -13 -30 -45 -49 -72
-49 -69 -118 -187 -147 -252 -14 -31 -32 -69 -39 -86 -66 -144 -123 -356 -140
-515 -2 -19 -4 -35 -5 -35 -11 0 -15 -295 -6 -395 11 -110 14 -135 16 -135 1
0 3 -15 5 -32 10 -94 107 -413 137 -450 6 -7 8 -13 4 -13 -4 0 31 -70 108
-215 6 -11 21 -34 34 -52 12 -17 22 -34 22 -38 0 -3 6 -12 13 -20 6 -7 21 -25
32 -41 11 -15 32 -42 48 -60 15 -17 27 -35 27 -38 0 -8 201 -209 255 -254 21
-19 69 -55 105 -80 36 -26 68 -51 72 -57 5 -6 8 -6 8 0 0 6 6 3 13 -5 14 -17
33 -29 123 -75 33 -18 71 -38 85 -46 13 -7 26 -14 29 -14 3 -1 19 -7 35 -14
56 -24 80 -32 81 -29 0 2 7 -2 15 -8 13 -11 164 -60 210 -69 11 -2 29 -7 39
-10 22 -7 55 -14 95 -19 17 -3 46 -7 66 -11 19 -3 55 -7 80 -10 24 -2 44 -4
44 -5 0 -1 73 -3 163 -4 89 0 162 1 162 4 0 3 19 5 43 6 23 0 60 4 82 8 22 4
58 10 80 13 22 3 45 9 51 14 6 5 13 6 16 3 9 -8 183 45 298 91 114 46 210 92
274 133 88 55 122 77 134 89 7 7 17 13 21 13 4 0 17 8 28 17 11 10 42 36 69
58 69 56 254 241 254 254 0 6 4 11 8 11 8 0 124 153 148 195 6 11 33 56 58
100 26 44 49 90 52 103 4 12 10 22 14 22 4 0 10 10 13 22 3 13 22 66 42 118
43 109 86 260 79 272 -3 4 -1 8 5 8 5 0 10 8 10 18 0 19 5 54 16 122 5 25 8
60 9 78 0 17 4 32 7 32 4 0 4 13 -1 29 -4 15 -5 33 -1 39 5 9 6 237 1 237 -1
0 -3 18 -5 40 -1 22 -6 65 -10 95 -4 30 -7 63 -7 73 1 9 -3 17 -7 17 -4 0 -7
10 -6 23 1 12 -2 28 -8 35 -5 6 -7 12 -4 12 14 0 -74 282 -94 305 -5 5 -9 15
-9 22 0 27 -144 303 -169 323 -3 3 -12 17 -19 31 -8 14 -23 38 -35 52 -12 14
-31 38 -42 53 -11 15 -32 41 -47 56 -16 16 -28 31 -28 34 0 8 -193 196 -220
214 -12 8 -36 27 -54 42 -17 15 -34 28 -37 28 -3 0 -18 11 -33 24 -49 41 -340
205 -353 198 -2 -1 -28 9 -59 23 -50 22 -164 61 -204 70 -8 2 -44 11 -80 20
-35 9 -85 18 -110 20 -25 2 -45 5 -45 6 0 2 -14 4 -90 13 -61 7 -314 13 -320
8z"/>
</g>
</svg>
